<?xml version="1.0" encoding="utf-8"?>
<!-- Generator: Adobe Illustrator 25.2.1, SVG Export Plug-In . SVG Version: 6.00 Build 0)  -->
<svg version="1.1" id="Layer_1" xmlns="http://www.w3.org/2000/svg" xmlns:xlink="http://www.w3.org/1999/xlink" x="0px" y="0px"
	 viewBox="0 0 88 86" style="enable-background:new 0 0 88 86;" xml:space="preserve">
<style type="text/css">
	.st0{fill:#17406B;}
</style>
<path class="st0" d="M56.6,54.4H30.9c-1.6,0-3.1-1.1-3.4-2.7l-3.2-14.1c-0.4-1.9,0.8-3.8,2.7-4.2c0.3-0.1,0.5-0.1,0.8-0.1h29.8
	l2.1-8c0.5-1.9,2.5-3,4.4-2.4c1.8,0.5,2.9,2.3,2.5,4.2L60,51.7C59.6,53.3,58.2,54.4,56.6,54.4L56.6,54.4z"/>
<path class="st0" d="M38.3,65c-1.9,0-3.5-1.6-3.5-3.5c0-1.9,1.6-3.5,3.5-3.5c1.9,0,3.5,1.6,3.5,3.5c0,0,0,0,0,0
	C41.8,63.4,40.3,65,38.3,65z"/>
<path class="st0" d="M52.4,65c-1.9,0-3.5-1.6-3.5-3.6s1.6-3.5,3.6-3.5c1.9,0,3.5,1.6,3.5,3.5C56,63.4,54.4,65,52.4,65
	C52.5,65,52.5,65,52.4,65z"/>
</svg>
