<svg id="Layer_1" data-name="Layer 1" xmlns="http://www.w3.org/2000/svg" viewBox="0 0 88 86"><defs><style>.cls-1,.cls-3{fill:#17406b;}.cls-2{fill:#fbe0e5;}.cls-3{stroke:#fbe0e5;stroke-miterlimit:10;stroke-width:2px;}</style></defs><path class="cls-1" d="M44,8.62A34.38,34.38,0,1,0,78.38,43,34.42,34.42,0,0,0,44,8.62Zm0,66.47A32.1,32.1,0,1,1,76.1,43,32.13,32.13,0,0,1,44,75.09Z"/><path class="cls-2" d="M76.1,43A32.1,32.1,0,1,1,44,10.9,32.13,32.13,0,0,1,76.1,43Z"/><g id="surface1"><path class="cls-3" d="M52.11,47.74A13.46,13.46,0,1,0,48,51.55l9.93,9.87A2.82,2.82,0,0,0,62,57.54l-.11-.1Zm-11,.92A8.69,8.69,0,1,1,49.8,40a8.68,8.68,0,0,1-8.68,8.7Z"/></g></svg>