<svg id="Layer_1" data-name="Layer 1" xmlns="http://www.w3.org/2000/svg" viewBox="0 0 50 50"><defs><style>.cls-1{fill:#395196;}.cls-2{fill:#fff;}.cls-3{fill:#00a9ff;}</style></defs><path class="cls-1" d="M48.1,25A23.1,23.1,0,1,0,25,48.1,23.1,23.1,0,0,0,48.1,25Z"/><path class="cls-2" d="M27,19.53V17.34A1.16,1.16,0,0,1,28.24,16h3.07V11.34l-4.22,0c-4.7,0-5.76,3.5-5.76,5.74v2.47H18.62V25h2.73V38.68h5.47V25h4.06l.5-5.47Z"/><path class="cls-3" d="M48.77,25A23.77,23.77,0,1,0,25,48.77,23.77,23.77,0,0,0,48.77,25Z"/><path class="cls-2" d="M38.79,17.87a11.72,11.72,0,0,1-3,.77,5.74,5.74,0,0,0,2.46-2.92c0-.07-.06-.14-.13-.1a11.65,11.65,0,0,1-3.46,1.26,5.79,5.79,0,0,0-10,3.89,5.49,5.49,0,0,0,.15,1.29,16.46,16.46,0,0,1-11.88-5.9,0,0,0,0,0-.05,0,5.62,5.62,0,0,0,1.71,7.48,0,0,0,0,1,0,.07A5.93,5.93,0,0,1,12.1,23s0,0,0,0a7.26,7.26,0,0,0,.39,2.08,5.8,5.8,0,0,0,4.24,3.52,5.95,5.95,0,0,1-2.56.11s0,0,0,0a5.78,5.78,0,0,0,5.28,3.89,0,0,0,0,1,0,.06,11.73,11.73,0,0,1-7.1,2.38,12.62,12.62,0,0,1-1.38-.08,16.6,16.6,0,0,0,8.86,2.55A16.13,16.13,0,0,0,30.6,33.7a16.72,16.72,0,0,0,5.22-8.84,15.56,15.56,0,0,0,.39-3.43c0-.25,0-.49,0-.74A11.53,11.53,0,0,0,38.9,18,.09.09,0,0,0,38.79,17.87Z"/></svg>