<?xml version="1.0" encoding="utf-8"?>
<!-- Generator: Adobe Illustrator 25.2.1, SVG Export Plug-In . SVG Version: 6.00 Build 0)  -->
<svg version="1.1" id="Layer_1" xmlns="http://www.w3.org/2000/svg" xmlns:xlink="http://www.w3.org/1999/xlink" x="0px" y="0px"
	 viewBox="0 0 88 86" style="enable-background:new 0 0 88 86;" xml:space="preserve">
<style type="text/css">
	.st0{fill:none;stroke:#000000;stroke-width:30;}
	.st1{fill:#17406B;}
	.st2{fill:#FBE0E5;}
</style>
<path class="st0" d="M194.3,414.5c-1.1-3.2-2.4-6.4-3.7-9.6"/>
<g>
	<path class="st1" d="M45.2,6.3c1,0.2,1.9,0.4,2.9,0.6c6.5,1.5,12.1,7.7,12.9,14.4c0.6,4.4-0.1,8.5-2.5,12.2
		c-3.3,4.9-7.8,7.8-13.8,8.2c-7.9,0.5-14.4-4.1-17.3-10.4c-2.8-5.9-1.6-13.8,2.7-18.7c2.7-3,5.9-5.1,9.8-5.9c0.7-0.1,1.4-0.2,2-0.4
		C43,6.3,44.1,6.3,45.2,6.3z M56.9,23.9c0-7.5-6-13.4-13.4-13.4c-7.4,0-13.4,6-13.4,13.4c0,7.4,6,13.4,13.4,13.4
		C51,37.3,57,31.3,56.9,23.9z"/>
	<path class="st1" d="M44,79.7c-5.8,0-11.7,0-17.5,0c-3,0-5.7-0.6-8.2-2.3c-2.8-2-4.5-4.7-4.8-8.1C13,63.2,13.7,57.2,16,51.5
		c1.4-3.4,3.4-6.3,6.8-8.1c2.1-1.1,4.3-1.6,6.7-1.6c0.7,0,1.5,0.4,2.2,0.8c1.1,0.6,2.1,1.3,3.2,2c6.1,3.8,12.3,3.8,18.4,0
		c0.8-0.5,1.7-1,2.5-1.6c1.5-1.1,3.2-1.3,5-1c4.7,0.7,8,3.3,10.3,7.3c2.1,3.7,3,7.8,3.4,12c0.2,2.2,0.3,4.3,0.3,6.5
		c-0.1,6.4-4.5,11.2-10.9,11.9c-0.8,0.1-1.7,0.1-2.5,0.1C55.5,79.7,49.7,79.7,44,79.7z M43.9,75.4C43.9,75.4,43.9,75.4,43.9,75.4
		c6.1,0,12.1,0,18.2,0c5.1-0.1,8.2-3.3,8.2-8.4c0-1.9-0.1-3.8-0.3-5.7c-0.4-3.4-1.1-6.7-2.7-9.8c-1.7-3.2-4.2-5.2-7.9-5.4
		c-0.3,0-0.7,0.1-0.9,0.2c-1.1,0.7-2.1,1.4-3.2,2c-3,1.9-6.2,3-9.7,3.2c-4.7,0.4-9.1-0.9-13.1-3.5c-0.9-0.6-1.9-1.2-2.8-1.8
		c-0.2-0.1-0.4-0.2-0.7-0.2c-2.3,0.1-4.4,0.8-6.1,2.5c-1.4,1.4-2.4,3.1-3.1,4.9c-1.8,4.6-2.2,9.5-2.1,14.4c0.1,2.7,1.3,4.9,3.7,6.3
		c1.6,0.9,3.3,1.2,5.1,1.2C32.3,75.4,38.1,75.4,43.9,75.4z"/>
	<path class="st2" d="M43.9,75.4c-5.8,0-11.6,0-17.4,0c-1.8,0-3.5-0.2-5.1-1.2c-2.4-1.4-3.6-3.6-3.7-6.3c-0.1-4.9,0.3-9.8,2.1-14.4
		c0.7-1.8,1.7-3.5,3.1-4.9c1.7-1.7,3.7-2.4,6.1-2.5c0.2,0,0.5,0.1,0.7,0.2c1,0.6,1.9,1.2,2.8,1.8c4,2.5,8.3,3.8,13.1,3.5
		c3.5-0.3,6.7-1.4,9.7-3.2c1.1-0.7,2.1-1.4,3.2-2c0.3-0.2,0.6-0.2,0.9-0.2c3.7,0.2,6.2,2.3,7.9,5.4c1.7,3.1,2.4,6.4,2.7,9.8
		c0.2,1.9,0.3,3.8,0.3,5.7c0.1,5.1-3,8.3-8.2,8.4C56.1,75.5,50,75.4,43.9,75.4C43.9,75.4,43.9,75.4,43.9,75.4z"/>
</g>
</svg>
