<svg id="Layer_1" data-name="Layer 1" xmlns="http://www.w3.org/2000/svg" viewBox="0 0 50 50"><defs><style>.cls-1{fill:#395196;}.cls-2{fill:#fff;}.cls-3{fill:#00b456;}</style></defs><path class="cls-1" d="M48.1,25A23.1,23.1,0,1,0,25,48.1,23.1,23.1,0,0,0,48.1,25Z"/><path class="cls-2" d="M27,19.53V17.34A1.16,1.16,0,0,1,28.24,16h3.07V11.34l-4.22,0c-4.7,0-5.76,3.5-5.76,5.74v2.47H18.62V25h2.73V38.68h5.47V25h4.06l.5-5.47Z"/><path class="cls-3" d="M48.1,25A23.1,23.1,0,1,0,25,48.1,23.1,23.1,0,0,0,48.1,25Z"/><path class="cls-2" d="M38.88,23.09a13.64,13.64,0,0,0-27.26-.25c0,.19,0,.39,0,.59a13.5,13.5,0,0,0,1.86,6.83.18.18,0,0,1,0,.16l-2.41,7.14a.12.12,0,0,0,.15.16l7.44-2.36a.2.2,0,0,1,.15,0A13.65,13.65,0,0,0,38.89,23.43C38.89,23.33,38.88,23.09,38.88,23.09ZM16,29.53a10.86,10.86,0,0,1-1.87-6.1c0-.35,0-.7.05-1.06a11.09,11.09,0,0,1,22.07.2c0,.34,0,.61,0,.86a11.09,11.09,0,0,1-15.76,10c-.41-.19-1.18-.65-1.42-.8a.2.2,0,0,0-.17,0l-3.74,1.19a.11.11,0,0,1-.14-.14l1.21-3.57a.22.22,0,0,0,0-.18C16.21,29.78,16.09,29.61,16,29.53Z"/><path class="cls-2" d="M31.73,26.45a2.7,2.7,0,0,0-.67-.42c-.23-.12-1.94-1-2.26-1.07s-.59-.21-.87.2-.83,1-1,1.27-.27.22-.59.06a11.67,11.67,0,0,1-2.62-1.61,9.52,9.52,0,0,1-1.81-2.23c-.15-.25-.05-.36.13-.54s.59-.69.62-.74.22-.4.22-.4a.7.7,0,0,0,0-.67l-1-2.42c-.25-.6-.52-.63-.77-.61s-1.29,0-1.66.42l-.06.07a3.67,3.67,0,0,0-1.12,2.72,4,4,0,0,0,.18,1.14,7.28,7.28,0,0,0,1.19,2.31s.86,1.19,1.28,1.68a11.75,11.75,0,0,0,4.39,3.28,10.19,10.19,0,0,0,3.26.94c.21,0,.64-.11.74-.11a3.46,3.46,0,0,0,2.31-1.63A2.65,2.65,0,0,0,31.73,26.45Z"/></svg>