<?xml version="1.0" encoding="utf-8"?>
<!-- Generator: Adobe Illustrator 25.2.1, SVG Export Plug-In . SVG Version: 6.00 Build 0)  -->
<svg version="1.1" id="Layer_1" xmlns="http://www.w3.org/2000/svg" xmlns:xlink="http://www.w3.org/1999/xlink" x="0px" y="0px"
	 viewBox="0 0 88 86" style="enable-background:new 0 0 88 86;" xml:space="preserve">
<style type="text/css">
	.st0{fill:#17406B;}
	.st1{fill:#FBE0E5;}
</style>
<path class="st0" d="M64.7,49.2c-2.9-2.7-7.5-2.5-10.2,0.4c-1.3-1.4-3.2-2.3-5.2-2.3c-4,0-7.2,3.2-7.2,7.2
	c0,6.7,10.4,14.7,11.6,15.5c0.2,0.2,0.5,0.3,0.8,0.3c0.3,0,0.6-0.1,0.9-0.3C56.6,69.1,67,61.2,67,54.5C67,52.5,66.2,50.6,64.7,49.2z
	 M54.6,67c-3.3-2.6-9.6-8.5-9.6-12.6c0-2.4,1.9-4.3,4.3-4.3c1.7,0,3.3,1,4,2.6c0.1,0.3,0.3,0.5,0.6,0.6c0.7,0.4,1.6,0.1,2-0.6
	c0.7-1.6,2.2-2.6,3.9-2.6c2.4,0,4.3,1.9,4.3,4.3C64.2,58.6,57.9,64.4,54.6,67z"/>
<path class="st1" d="M64.2,54.5c0,4.1-6.3,9.9-9.6,12.6c-3.3-2.6-9.6-8.5-9.6-12.6c0-2.4,1.9-4.3,4.3-4.3c1.7,0,3.3,1,4,2.6
	c0.1,0.3,0.3,0.5,0.6,0.6c0.7,0.4,1.6,0.1,2-0.6c0.7-1.6,2.2-2.6,3.9-2.6C62.2,50.2,64.2,52.1,64.2,54.5z"/>
<path class="st0" d="M37.7,58.8H24.4c-1.9,0-3.4-1.5-3.4-3.3c0,0,0,0,0,0c0-0.2,0-0.4,0-0.5L26.8,27c0.3-1.6,1.7-2.7,3.3-2.7h20.1
	c1.6,0,3,1.1,3.3,2.7l3.3,16.1c0.1,0.8-0.4,1.5-1.2,1.7c-0.8,0.1-1.5-0.3-1.7-1.1l-3.3-16.1c0-0.2-0.2-0.4-0.5-0.4H30.1
	c-0.2,0-0.4,0.2-0.5,0.4l-5.8,27.8c0,0.3,0.2,0.5,0.4,0.6c0,0,0,0,0,0h13.3c0.8-0.1,1.5,0.5,1.6,1.3c0.1,0.8-0.5,1.5-1.3,1.6
	C37.8,58.8,37.7,58.8,37.7,58.8z"/>
<path class="st0" d="M63,44.4c-0.7,0-1.3-0.5-1.4-1.2l-3.2-15.7c0-0.2-0.2-0.4-0.5-0.4h-8.6c-0.8-0.1-1.4-0.8-1.3-1.6
	c0.1-0.7,0.6-1.3,1.3-1.3h8.6c1.6,0,3,1.1,3.3,2.7l3.2,15.7c0.2,0.8-0.3,1.5-1.1,1.7C63.2,44.4,63.1,44.4,63,44.4z"/>
<path class="st0" d="M40.2,41.6c-4.2,0-7.7-3.4-7.7-7.7v-4.3c-0.1-0.8,0.5-1.5,1.3-1.6c0.8-0.1,1.5,0.5,1.6,1.3c0,0.1,0,0.2,0,0.2
	v4.3c0,2.6,2.1,4.8,4.8,4.8s4.8-2.1,4.8-4.8v-4.3c0-0.8,0.6-1.4,1.4-1.4c0.8,0,1.4,0.6,1.4,1.4l0,0v4.3
	C47.8,38.1,44.4,41.6,40.2,41.6z"/>
</svg>
